Coordinates
version=1
nRows=14
nColumns=40
inDegrees=yes

Units are S.I. units (second, meters, Newtons, ...)
If the header above contains a line with 'inDegrees', this indicates whether rotational values are in degrees (yes) or radians (no).

endheader
time	pelvis_tilt	pelvis_list	pelvis_rotation	pelvis_tx	pelvis_ty	pelvis_tz	hip_flexion_r	hip_adduction_r	hip_rotation_r	knee_angle_r	knee_angle_r_beta	ankle_angle_r	subtalar_angle_r	mtp_angle_r	hip_flexion_l	hip_adduction_l	hip_rotation_l	knee_angle_l	knee_angle_l_beta	ankle_angle_l	subtalar_angle_l	mtp_angle_l	lumbar_extension	lumbar_bending	lumbar_rotation	arm_flex_r	arm_add_r	arm_rot_r	elbow_flex_r	pro_sup_r	wrist_flex_r	wrist_dev_r	arm_flex_l	arm_add_l	arm_rot_l	elbow_flex_l	pro_sup_l	wrist_flex_l	wrist_dev_l
      1.30500000	      1.92901376	     -3.97211012	      1.12536047	      0.18075138	      0.44092827	     -1.22376251	     87.86171197	    -49.15738986	     23.52940642	    122.87801231	      2.14462589	     34.57594361	     21.69104861	      0.00000000	     99.71873515	    -46.34280107	     32.62396675	    126.19565631	      2.20252970	     35.80192092	     27.34897201	      0.00000000	    -42.01290393	      5.14697714	     -5.22585157	     44.99977604	    -15.00000123	     44.99977604	     75.00017585	     45.00000026	      0.00000000	      0.00000000	     44.99977604	    -15.00000123	     44.99977604	     75.00017585	     45.00000026	      0.00000000	      0.00000000
      1.31000000	      2.24179901	     -4.13346691	      1.13555049	      0.18085336	      0.44016353	     -1.22410775	     87.45832167	    -49.18090477	     23.44704479	    122.99088649	      2.14659592	     34.65726015	     21.83653058	      0.00000000	     99.76799562	    -46.33209099	     33.09385794	    126.38572984	      2.20584711	     35.92127493	     27.45028651	      0.00000000	    -42.42824815	      5.27072273	     -5.25092775	     44.99979264	    -15.00000103	     44.99979264	     75.00017585	     45.00000026	      0.00000000	      0.00000000	     44.99979264	    -15.00000103	     44.99979264	     75.00017585	     45.00000026	      0.00000000	      0.00000000
      1.31500000	      2.44916873	     -4.16690151	      1.13558626	      0.18099720	      0.43901589	     -1.22430439	     87.43894665	    -49.18426912	     23.67987465	    123.15121698	      2.14939421	     34.71091930	     21.97240846	      0.00000000	     99.79000217	    -46.31367903	     33.38766622	    126.59097840	      2.20942938	     36.03199148	     27.53496561	      0.00000000	    -42.65861516	      5.26158050	     -5.21843467	     44.99980644	    -15.00000087	     44.99980644	     75.00017585	     45.00000026	      0.00000000	      0.00000000	     44.99980644	    -15.00000087	     44.99980644	     75.00017585	     45.00000026	      0.00000000	      0.00000000
      1.32000000	      2.63961606	     -4.00281906	      1.09338337	      0.18111496	      0.43788388	     -1.22427933	     87.73555427	    -49.17880197	     24.27533622	    123.30987145	      2.15216326	     34.72414058	     22.22471438	      0.00000000	     99.57759395	    -46.37184707	     33.34549319	    126.78622593	      2.21283709	     36.16575591	     27.53741412	      0.00000000	    -42.88215633	      5.14873908	     -5.14134667	     44.99981832	    -15.00000074	     44.99981832	     75.00017585	     45.00000026	      0.00000000	      0.00000000	     44.99981832	    -15.00000074	     44.99981832	     75.00017585	     45.00000026	      0.00000000	      0.00000000
      1.32500000	      2.91086160	     -4.20173271	      1.12815865	      0.18119911	      0.43711375	     -1.22469560	     87.31796573	    -49.21073202	     24.12162830	    123.41438111	      2.15398729	     34.81934797	     22.26258741	      0.00000000	     99.69895111	    -46.30483610	     33.86058792	    126.96638151	      2.21598140	     36.24757329	     27.66723836	      0.00000000	    -43.25041934	      5.31160400	     -5.14220562	     44.99982943	    -15.00000063	     44.99982943	     75.00017585	     45.00000026	      0.00000000	      0.00000000	     44.99982943	    -15.00000063	     44.99982943	     75.00017585	     45.00000026	      0.00000000	      0.00000000
      1.33000000	      3.06586353	     -4.05805757	      1.09335936	      0.18131481	      0.43592770	     -1.22468018	     87.64002837	    -49.19864439	     24.69374242	    123.58154016	      2.15690477	     34.81561557	     22.47002307	      0.00000000	     99.53802271	    -46.33596721	     33.84660439	    127.15912952	      2.21934548	     36.37723528	     27.67844206	      0.00000000	    -43.41719241	      5.18339559	     -5.06036768	     44.99983845	    -15.00000054	     44.99983845	     75.00017585	     45.00000026	      0.00000000	      0.00000000	     44.99983845	    -15.00000054	     44.99983845	     75.00017585	     45.00000026	      0.00000000	      0.00000000
      1.33500000	      3.25322926	     -4.05237496	      1.08489987	      0.18141957	      0.43491202	     -1.22482353	     87.67780352	    -49.20073027	     24.97180593	    123.72224689	      2.15936057	     34.84694819	     22.60552688	      0.00000000	     99.50657997	    -46.32388252	     34.04543795	    127.33969334	      2.22249692	     36.47529831	     27.72812747	      0.00000000	    -43.63877929	      5.15058682	     -5.05492400	     44.99984637	    -15.00000047	     44.99984637	     75.00017585	     45.00000026	      0.00000000	      0.00000000	     44.99984637	    -15.00000047	     44.99984637	     75.00017585	     45.00000026	      0.00000000	      0.00000000
      1.34000000	      3.46601313	     -4.09245700	      1.08509368	      0.18151377	      0.43403879	     -1.22504510	     87.58339470	    -49.21140055	     25.13234661	    123.83353035	      2.16130283	     34.89515940	     22.71913575	      0.00000000	     99.49048228	    -46.31030039	     34.29972301	    127.51266657	      2.22551587	     36.56540083	     27.79738169	      0.00000000	    -43.91285391	      5.18544298	     -5.03866198	     44.99985362	    -15.00000040	     44.99985362	     75.00017585	     45.00000026	      0.00000000	      0.00000000	     44.99985362	    -15.00000040	     44.99985362	     75.00017585	     45.00000026	      0.00000000	      0.00000000
      1.34500000	      3.59904975	     -4.03676140	      1.07012385	      0.18161181	      0.43293529	     -1.22514956	     87.78277729	    -49.20897844	     25.52116623	    123.98127620	      2.16388148	     34.88906331	     22.86664319	      0.00000000	     99.44433087	    -46.29490425	     34.40335228	    127.69783323	      2.22874764	     36.68923981	     27.80813650	      0.00000000	    -44.06154717	      5.14889116	     -4.94993586	     44.99986165	    -15.00000033	     44.99986165	     75.00017585	     45.00000026	      0.00000000	      0.00000000	     44.99986165	    -15.00000033	     44.99986165	     75.00017585	     45.00000026	      0.00000000	      0.00000000
      1.35000000	      3.79588094	     -4.06421333	      1.06849308	      0.18166473	      0.43209103	     -1.22530058	     87.73959765	    -49.21485881	     25.70212390	    124.10440001	      2.16603040	     34.92340616	     23.01876116	      0.00000000	     99.40059491	    -46.26833927	     34.63284199	    127.84478819	      2.23131249	     36.78825735	     27.84038203	      0.00000000	    -44.33776263	      5.12105045	     -4.95048751	     44.99986851	    -15.00000028	     44.99986851	     75.00017585	     45.00000026	      0.00000000	      0.00000000	     44.99986851	    -15.00000028	     44.99986851	     75.00017585	     45.00000026	      0.00000000	      0.00000000
      1.35500000	      4.15743004	     -4.38998723	      1.11895503	      0.18159621	      0.43193470	     -1.22587280	     86.91271714	    -49.24471117	     25.17429127	    124.11977735	      2.16629878	     35.04704624	     22.92998352	      0.00000000	     99.51503746	    -46.19487385	     35.27477473	    127.97357520	      2.23356024	     36.84141493	     28.02998567	      0.00000000	    -44.89107224	      5.28000156	     -4.99293344	     44.99987432	    -15.00000024	     44.99987432	     75.00017585	     45.00000026	      0.00000000	      0.00000000	     44.99987432	    -15.00000024	     44.99987432	     75.00017585	     45.00000026	      0.00000000	      0.00000000
      1.36000000	      4.20715348	     -4.16347095	      1.06665264	      0.18180937	      0.43065214	     -1.22579350	     87.48011844	    -49.23379218	     25.92441441	    124.28864957	      2.16924616	     35.04827993	     23.11550790	      0.00000000	     99.35158156	    -46.24910565	     35.09688893	    128.16326906	      2.23687103	     36.93377255	     27.96281285	      0.00000000	    -44.83192710	      5.20038484	     -4.93915781	     44.99987913	    -15.00000020	     44.99987913	     75.00017585	     45.00000026	      0.00000000	      0.00000000	     44.99987913	    -15.00000020	     44.99987913	     75.00017585	     45.00000026	      0.00000000	      0.00000000
      1.36500000	      4.39701046	     -4.16625105	      1.06159150	      0.18186435	      0.42988417	     -1.22594443	     87.45476816	    -49.23736533	     26.13777821	    124.39435918	      2.17109114	     35.08132714	     23.26482135	      0.00000000	     99.28692011	    -46.24121024	     35.26662483	    128.31146005	      2.23945745	     37.03166895	     28.01784617	      0.00000000	    -45.05530731	      5.20510649	     -4.88663509	     44.99988349	    -15.00000017	     44.99988349	     75.00017585	     45.00000026	      0.00000000	      0.00000000	     44.99988349	    -15.00000017	     44.99988349	     75.00017585	     45.00000026	      0.00000000	      0.00000000
      1.37000000	      4.56281936	     -4.19466650	      1.06333760	      0.18190818	      0.42915741	     -1.22615249	     87.40681024	    -49.25019856	     26.28451041	    124.48317511	      2.17264127	     35.12139776	     23.36853870	      0.00000000	     99.26881360	    -46.21338495	     35.46182213	    128.45329557	      2.24193294	     37.11231453	     28.04928310	      0.00000000	    -45.27162628	      5.23001179	     -4.85181230	     44.99988752	    -15.00000015	     44.99988752	     75.00017585	     45.00000026	      0.00000000	      0.00000000	     44.99988752	    -15.00000015	     44.99988752	     75.00017585	     45.00000026	      0.00000000	      0.00000000
